<?xml version="1.0" encoding="utf-8"?>
<!-- Generator: Adobe Illustrator 15.0.0, SVG Export Plug-In . SVG Version: 6.00 Build 0)  -->
<!DOCTYPE svg PUBLIC "-//W3C//DTD SVG 1.1//EN" "http://www.w3.org/Graphics/SVG/1.1/DTD/svg11.dtd">
<svg version="1.1" id="Layer_1" xmlns="http://www.w3.org/2000/svg" xmlns:xlink="http://www.w3.org/1999/xlink" x="0px" y="0px"
	 width="128px" height="128px" viewBox="0 0 128 128" enable-background="new 0 0 128 128" xml:space="preserve">
<rect fill="#F5005D" width="128" height="128"/>
<path fill="#FFFFFF" d="M57.293,84.117v-6.704h4.472v2.234h4.47v-2.234h4.471v6.704H57.293z M102,75.177h-4.47V102h-67.06V75.177H26
	V39.412h16.167C46.36,31.23,54.705,26,64,26s17.647,5.234,21.833,13.412H102V75.177z M47.32,39.412h33.366
	c-3.686-5.512-9.875-8.941-16.682-8.941C57.2,30.471,51.007,33.904,47.32,39.412z M93.059,75.177H34.941V97.53h58.117V75.177z
	 M97.53,43.882h-67.06v26.824h67.06V43.882z"/>
</svg>
